<svg width="15" height="14" viewBox="0 0 15 14" fill="none" xmlns="http://www.w3.org/2000/svg">
<path fill-rule="evenodd" clip-rule="evenodd" d="M2.40553 3.30967C3.57272 1.48558 5.62343 0.277344 7.95577 0.277344C11.582 0.277344 14.5299 3.19968 14.5299 6.8147C14.5299 9.30202 13.1343 11.4614 11.0824 12.5666V13.1157C11.0824 13.4767 10.7899 13.7694 10.4291 13.7694H9.12238C4.43156 13.7694 0.628906 9.9645 0.628906 5.27088V3.96341C0.628906 3.60236 0.921418 3.30967 1.28225 3.30967H2.40553ZM3.41283 4.33355C4.2946 2.74605 5.99718 1.66827 7.95577 1.66827C10.8234 1.66827 13.1398 3.97694 13.1398 6.8147C13.1398 8.62938 12.1925 10.2277 10.7596 11.1443C10.6924 11.1048 10.6172 11.0769 10.5365 11.0634L7.63832 10.5801C7.3554 10.533 7.07482 10.6759 6.94655 10.9326L6.44081 11.9447C4.62847 11.2149 3.18189 9.76748 2.45256 7.95405L3.46403 7.44801C3.72057 7.31966 3.86345 7.03891 3.8163 6.75582L3.41283 4.33355Z" fill="#1D2319"/>
<path d="M4.75127 8.73704V8.36111L6.16309 6.81563C6.32878 6.63463 6.46522 6.4773 6.57243 6.34363C6.67964 6.20858 6.759 6.08188 6.81052 5.96353C6.86343 5.84379 6.88988 5.71848 6.88988 5.5876C6.88988 5.43723 6.85368 5.30705 6.78128 5.19706C6.71027 5.08706 6.61281 5.00213 6.48889 4.94226C6.36498 4.88239 6.22574 4.85246 6.0712 4.85246C5.9069 4.85246 5.76349 4.88657 5.64097 4.95479C5.51984 5.02163 5.42585 5.11561 5.35902 5.23674C5.29358 5.35787 5.26086 5.49989 5.26086 5.66279H4.76798C4.76798 5.41217 4.82576 5.19218 4.94133 5.00283C5.05689 4.81347 5.21422 4.66589 5.41332 4.56007C5.61382 4.45425 5.83868 4.40135 6.0879 4.40135C6.33852 4.40135 6.5606 4.45425 6.75413 4.56007C6.94766 4.66589 7.09943 4.8086 7.20942 4.98821C7.31941 5.16782 7.37441 5.36762 7.37441 5.5876C7.37441 5.74494 7.34587 5.89879 7.28878 6.04916C7.23309 6.19814 7.13563 6.36452 6.99639 6.54831C6.85855 6.7307 6.66711 6.95347 6.42206 7.21662L5.46136 8.24415V8.27757H7.44959V8.73704H4.75127Z" fill="#1D2319"/>
<path d="M8.12 7.85987V7.43382L9.99963 4.45982H10.3087V5.11978H10.0999L8.67971 7.36699V7.40041H11.211V7.85987H8.12ZM10.1333 8.73704V4.45982H10.6262V8.73704H10.1333Z" fill="#1D2319"/>
</svg>
