<svg width="14" height="14" viewBox="0 0 14 14" fill="none" xmlns="http://www.w3.org/2000/svg">
<path d="M0 1C0 0.447715 0.447715 0 1 0H13C13.5523 0 14 0.447715 14 1V3C14 3.55228 13.5523 4 13 4H1C0.447716 4 0 3.55228 0 3V1Z" fill="#00717D" fill-opacity="0.6"/>
<path d="M0 7C0 6.44771 0.447715 6 1 6H7C7.55229 6 8 6.44771 8 7V13C8 13.5523 7.55229 14 7 14H1C0.447715 14 0 13.5523 0 13V7Z" fill="#00717D" fill-opacity="0.6"/>
<path d="M11 6C10.4477 6 10 6.44771 10 7V13C10 13.5523 10.4477 14 11 14H13C13.5523 14 14 13.5523 14 13V7C14 6.44771 13.5523 6 13 6H11Z" fill="#00717D" fill-opacity="0.6"/>
</svg>
