<svg width="13" height="13" viewBox="0 0 13 13" fill="none" xmlns="http://www.w3.org/2000/svg">
<path d="M1.42663 0.347656C1.02489 0.347656 0.699219 0.676792 0.699219 1.0828V2.55309C0.699219 7.83122 4.93295 12.11 10.1555 12.11H11.6103C12.0121 12.11 12.3377 11.7809 12.3377 11.3748V9.79217C12.3377 9.4328 12.0807 9.12611 11.7299 9.06703L8.50323 8.52352C8.18824 8.47047 7.87584 8.63124 7.73303 8.9199L7.16997 10.058C5.15217 9.23737 3.54161 7.60966 2.7296 5.57041L3.85573 5.00135C4.14135 4.85702 4.30043 4.5413 4.24793 4.22296L3.71015 0.961945C3.65169 0.607466 3.34823 0.347656 2.99264 0.347656H1.42663Z" fill="#1D2319"/>
<path d="M6.88992 0.973312C6.20612 0.973312 5.65178 1.43168 5.65178 1.99711V4.04472C5.65178 4.61015 6.20612 5.06852 6.88992 5.06852H8.12806V6.60422L9.98527 5.06852H11.2234C11.9072 5.06852 12.4616 4.61015 12.4616 4.04472V1.99711C12.4616 1.43168 11.9072 0.973312 11.2234 0.973312H6.88992Z" fill="#1D2319"/>
</svg>
